<svg width="500" height="500" viewBox="0 0 500 500" fill="none" xmlns="http://www.w3.org/2000/svg">
<path d="M40.2312 255.165C37.8373 256.59 34.7107 255.791 33.6133 253.231C30.4574 245.867 29.4157 237.683 30.6562 229.586C32.1573 219.788 36.9125 210.689 44.1521 203.763C51.3917 196.837 60.6921 192.488 70.5481 191.421C80.4042 190.354 90.239 192.631 98.461 197.883C106.683 203.135 112.811 211.055 115.853 220.362C118.896 229.668 118.674 239.817 115.225 249.164C111.775 258.511 105.299 266.511 96.8458 271.868C89.8658 276.291 81.8746 278.699 73.7773 278.873C70.9622 278.934 68.9296 276.376 69.2766 273.582L69.4482 272.2C69.7819 269.513 72.2019 267.621 74.9054 267.475C80.5429 267.172 86.0759 265.409 90.9449 262.324C97.2087 258.354 102.007 252.427 104.563 245.501C107.119 238.575 107.283 231.056 105.029 224.16C102.775 217.264 98.2339 211.396 92.1417 207.504C86.0495 203.612 78.7622 201.925 71.4592 202.716C64.1563 203.507 57.265 206.729 51.9007 211.861C46.5364 216.993 43.0131 223.735 41.9008 230.995C41.0429 236.595 41.6581 242.25 43.6453 247.416C44.628 249.97 43.8809 252.992 41.529 254.392L40.2312 255.165Z" fill="white"/>
<path d="M82.3371 215.923C83.6574 215.122 85.3505 215.952 85.4229 217.436L87.1419 252.676C87.216 254.196 85.5436 255.256 84.1503 254.573L51.0871 238.364C49.6939 237.681 49.6412 235.775 50.9928 234.954L82.3371 215.923Z" fill="#14F195"/>
<rect width="8.08148" height="49.2389" rx="2" transform="matrix(0.870318 0.492491 -0.53309 0.846059 65.2488 240.361)" fill="#14F195"/>
<path d="M185.343 229.914H174.455C174.256 228.505 173.85 227.254 173.237 226.161C172.624 225.05 171.837 224.106 170.876 223.327C169.915 222.548 168.804 221.951 167.545 221.537C166.302 221.123 164.951 220.915 163.493 220.915C160.858 220.915 158.563 221.57 156.607 222.879C154.652 224.172 153.135 226.061 152.058 228.547C150.981 231.016 150.442 234.016 150.442 237.545C150.442 241.175 150.981 244.224 152.058 246.693C153.152 249.162 154.677 251.027 156.632 252.286C158.588 253.546 160.85 254.175 163.418 254.175C164.86 254.175 166.194 253.985 167.42 253.604C168.663 253.223 169.765 252.667 170.727 251.938C171.688 251.192 172.483 250.289 173.113 249.229C173.759 248.168 174.207 246.958 174.455 245.599L185.343 245.649C185.061 247.986 184.357 250.24 183.23 252.411C182.12 254.565 180.62 256.496 178.731 258.202C176.858 259.893 174.621 261.235 172.019 262.229C169.434 263.207 166.509 263.696 163.244 263.696C158.704 263.696 154.643 262.669 151.064 260.614C147.501 258.559 144.684 255.584 142.612 251.69C140.557 247.795 139.53 243.08 139.53 237.545C139.53 231.994 140.574 227.271 142.662 223.376C144.75 219.482 147.584 216.516 151.163 214.477C154.743 212.422 158.77 211.395 163.244 211.395C166.194 211.395 168.929 211.809 171.447 212.638C173.983 213.466 176.228 214.676 178.184 216.267C180.139 217.841 181.73 219.772 182.957 222.059C184.2 224.346 184.995 226.964 185.343 229.914ZM203.452 212.091V263H192.863V212.091H203.452ZM211.935 263V224.818H222.524V263H211.935ZM217.254 219.896C215.68 219.896 214.329 219.374 213.203 218.33C212.092 217.27 211.537 216.002 211.537 214.527C211.537 213.069 212.092 211.817 213.203 210.773C214.329 209.713 215.68 209.183 217.254 209.183C218.829 209.183 220.171 209.713 221.281 210.773C222.408 211.817 222.972 213.069 222.972 214.527C222.972 216.002 222.408 217.27 221.281 218.33C220.171 219.374 218.829 219.896 217.254 219.896ZM248.259 263.746C244.348 263.746 240.983 262.917 238.166 261.26C235.366 259.586 233.211 257.266 231.703 254.3C230.212 251.333 229.466 247.92 229.466 244.058C229.466 240.147 230.22 236.717 231.728 233.767C233.253 230.801 235.415 228.489 238.216 226.832C241.017 225.158 244.348 224.321 248.209 224.321C251.54 224.321 254.456 224.926 256.959 226.136C259.461 227.345 261.442 229.044 262.9 231.232C264.358 233.419 265.162 235.988 265.311 238.938H255.318C255.036 237.032 254.291 235.499 253.081 234.339C251.888 233.162 250.322 232.574 248.383 232.574C246.742 232.574 245.309 233.021 244.082 233.916C242.873 234.795 241.928 236.079 241.249 237.769C240.569 239.46 240.229 241.506 240.229 243.909C240.229 246.345 240.561 248.417 241.224 250.124C241.903 251.83 242.856 253.131 244.082 254.026C245.309 254.921 246.742 255.369 248.383 255.369C249.593 255.369 250.678 255.12 251.639 254.623C252.617 254.126 253.421 253.405 254.05 252.46C254.697 251.499 255.119 250.347 255.318 249.005H265.311C265.145 251.922 264.35 254.49 262.925 256.711C261.516 258.915 259.569 260.638 257.083 261.881C254.597 263.124 251.656 263.746 248.259 263.746ZM281.686 252.013L281.711 239.31H283.252L295.482 224.818H307.638L291.207 244.009H288.696L281.686 252.013ZM272.091 263V212.091H282.681V263H272.091ZM295.955 263L284.719 246.37L291.779 238.888L308.359 263H295.955ZM313.032 263V212.091H346.74V220.965H323.796V233.096H344.502V241.97H323.796V263H313.032ZM364.37 212.091V263H353.781V212.091H364.37ZM390.104 263.746C386.243 263.746 382.904 262.925 380.086 261.285C377.286 259.628 375.123 257.324 373.599 254.374C372.074 251.408 371.312 247.969 371.312 244.058C371.312 240.114 372.074 236.667 373.599 233.717C375.123 230.751 377.286 228.447 380.086 226.807C382.904 225.15 386.243 224.321 390.104 224.321C393.965 224.321 397.296 225.15 400.097 226.807C402.914 228.447 405.085 230.751 406.61 233.717C408.135 236.667 408.897 240.114 408.897 244.058C408.897 247.969 408.135 251.408 406.61 254.374C405.085 257.324 402.914 259.628 400.097 261.285C397.296 262.925 393.965 263.746 390.104 263.746ZM390.154 255.543C391.911 255.543 393.377 255.045 394.554 254.051C395.73 253.04 396.617 251.665 397.214 249.925C397.827 248.185 398.133 246.204 398.133 243.984C398.133 241.763 397.827 239.783 397.214 238.043C396.617 236.303 395.73 234.927 394.554 233.916C393.377 232.905 391.911 232.4 390.154 232.4C388.381 232.4 386.889 232.905 385.68 233.916C384.486 234.927 383.583 236.303 382.97 238.043C382.373 239.783 382.075 241.763 382.075 243.984C382.075 246.204 382.373 248.185 382.97 249.925C383.583 251.665 384.486 253.04 385.68 254.051C386.889 255.045 388.381 255.543 390.154 255.543ZM422.357 263L411.967 224.818H422.681L428.597 250.472H428.945L435.11 224.818H445.624L451.889 250.322H452.212L458.029 224.818H468.718L458.352 263H447.141L440.578 238.987H440.106L433.544 263H422.357Z" fill="white"/>
</svg>
