<svg width="500" height="500" viewBox="0 0 500 500" fill="none" xmlns="http://www.w3.org/2000/svg">
<rect width="500" height="500" fill="#0C1E3A"/>
<path d="M53.2312 262.165C50.8373 263.59 47.7107 262.791 46.6133 260.231C43.4574 252.867 42.4157 244.683 43.6562 236.586C45.1573 226.788 49.9125 217.689 57.1521 210.763C64.3917 203.837 73.6921 199.488 83.5481 198.421C93.4042 197.354 103.239 199.631 111.461 204.883C119.683 210.135 125.811 218.055 128.853 227.362C131.896 236.668 131.674 246.817 128.225 256.164C124.775 265.511 118.299 273.511 109.846 278.868C102.866 283.291 94.8746 285.699 86.7773 285.873C83.9622 285.934 81.9296 283.376 82.2766 280.582L82.4482 279.2C82.7819 276.513 85.2019 274.621 87.9054 274.475C93.5429 274.172 99.0759 272.409 103.945 269.324C110.209 265.355 115.007 259.427 117.563 252.501C120.119 245.575 120.283 238.056 118.029 231.16C115.775 224.264 111.234 218.396 105.142 214.504C99.0495 210.612 91.7622 208.925 84.4592 209.716C77.1563 210.507 70.265 213.729 64.9007 218.861C59.5364 223.993 56.0131 230.735 54.9008 237.995C54.0429 243.595 54.6581 249.25 56.6453 254.416C57.628 256.97 56.8809 259.992 54.529 261.392L53.2312 262.165Z" fill="white"/>
<path d="M95.3371 222.923C96.6574 222.122 98.3505 222.952 98.4229 224.436L100.142 259.676C100.216 261.196 98.5436 262.256 97.1503 261.573L64.0871 245.364C62.6939 244.681 62.6412 242.775 63.9928 241.954L95.3371 222.923Z" fill="#14F195"/>
<rect width="8.08148" height="49.2389" rx="2" transform="matrix(0.870318 0.492491 -0.53309 0.846059 78.2488 247.361)" fill="#14F195"/>
<path d="M194.114 227.75H184.159C183.977 226.462 183.606 225.318 183.045 224.318C182.485 223.303 181.765 222.439 180.886 221.727C180.008 221.015 178.992 220.47 177.841 220.091C176.705 219.712 175.47 219.523 174.136 219.523C171.727 219.523 169.629 220.121 167.841 221.318C166.053 222.5 164.667 224.227 163.682 226.5C162.697 228.758 162.205 231.5 162.205 234.727C162.205 238.045 162.697 240.833 163.682 243.091C164.682 245.348 166.076 247.053 167.864 248.205C169.652 249.356 171.72 249.932 174.068 249.932C175.386 249.932 176.606 249.758 177.727 249.409C178.864 249.061 179.871 248.553 180.75 247.886C181.629 247.205 182.356 246.379 182.932 245.409C183.523 244.439 183.932 243.333 184.159 242.091L194.114 242.136C193.856 244.273 193.212 246.333 192.182 248.318C191.167 250.288 189.795 252.053 188.068 253.614C186.356 255.159 184.311 256.386 181.932 257.295C179.568 258.189 176.894 258.636 173.909 258.636C169.758 258.636 166.045 257.697 162.773 255.818C159.515 253.939 156.939 251.22 155.045 247.659C153.167 244.098 152.227 239.788 152.227 234.727C152.227 229.652 153.182 225.333 155.091 221.773C157 218.212 159.591 215.5 162.864 213.636C166.136 211.758 169.818 210.818 173.909 210.818C176.606 210.818 179.106 211.197 181.409 211.955C183.727 212.712 185.78 213.818 187.568 215.273C189.356 216.712 190.811 218.477 191.932 220.568C193.068 222.659 193.795 225.053 194.114 227.75ZM210.67 211.455V258H200.989V211.455H210.67ZM218.426 258V223.091H228.108V258H218.426ZM223.29 218.591C221.85 218.591 220.616 218.114 219.585 217.159C218.57 216.189 218.062 215.03 218.062 213.682C218.062 212.348 218.57 211.205 219.585 210.25C220.616 209.28 221.85 208.795 223.29 208.795C224.729 208.795 225.956 209.28 226.972 210.25C228.002 211.205 228.517 212.348 228.517 213.682C228.517 215.03 228.002 216.189 226.972 217.159C225.956 218.114 224.729 218.591 223.29 218.591ZM251.636 258.682C248.061 258.682 244.985 257.924 242.409 256.409C239.848 254.879 237.879 252.758 236.5 250.045C235.136 247.333 234.455 244.212 234.455 240.682C234.455 237.106 235.144 233.97 236.523 231.273C237.917 228.561 239.894 226.447 242.455 224.932C245.015 223.402 248.061 222.636 251.591 222.636C254.636 222.636 257.303 223.189 259.591 224.295C261.879 225.402 263.689 226.955 265.023 228.955C266.356 230.955 267.091 233.303 267.227 236H258.091C257.833 234.258 257.152 232.856 256.045 231.795C254.955 230.72 253.523 230.182 251.75 230.182C250.25 230.182 248.939 230.591 247.818 231.409C246.712 232.212 245.848 233.386 245.227 234.932C244.606 236.477 244.295 238.348 244.295 240.545C244.295 242.773 244.598 244.667 245.205 246.227C245.826 247.788 246.697 248.977 247.818 249.795C248.939 250.614 250.25 251.023 251.75 251.023C252.856 251.023 253.848 250.795 254.727 250.341C255.621 249.886 256.356 249.227 256.932 248.364C257.523 247.485 257.909 246.432 258.091 245.205H267.227C267.076 247.871 266.348 250.22 265.045 252.25C263.758 254.265 261.977 255.841 259.705 256.977C257.432 258.114 254.742 258.682 251.636 258.682ZM282.199 247.955L282.222 236.341H283.631L294.812 223.091H305.926L290.903 240.636H288.608L282.199 247.955ZM273.426 258V211.455H283.108V258H273.426ZM295.244 258L284.972 242.795L291.426 235.955L306.585 258H295.244ZM310.858 258V211.455H341.676V219.568H320.699V230.659H339.631V238.773H320.699V258H310.858ZM357.795 211.455V258H348.114V211.455H357.795ZM381.324 258.682C377.794 258.682 374.741 257.932 372.165 256.432C369.604 254.917 367.627 252.811 366.233 250.114C364.839 247.402 364.142 244.258 364.142 240.682C364.142 237.076 364.839 233.924 366.233 231.227C367.627 228.515 369.604 226.409 372.165 224.909C374.741 223.394 377.794 222.636 381.324 222.636C384.854 222.636 387.9 223.394 390.46 224.909C393.036 226.409 395.021 228.515 396.415 231.227C397.809 233.924 398.506 237.076 398.506 240.682C398.506 244.258 397.809 247.402 396.415 250.114C395.021 252.811 393.036 254.917 390.46 256.432C387.9 257.932 384.854 258.682 381.324 258.682ZM381.369 251.182C382.975 251.182 384.316 250.727 385.392 249.818C386.468 248.894 387.278 247.636 387.824 246.045C388.384 244.455 388.665 242.644 388.665 240.614C388.665 238.583 388.384 236.773 387.824 235.182C387.278 233.591 386.468 232.333 385.392 231.409C384.316 230.485 382.975 230.023 381.369 230.023C379.748 230.023 378.384 230.485 377.278 231.409C376.188 232.333 375.362 233.591 374.801 235.182C374.256 236.773 373.983 238.583 373.983 240.614C373.983 242.644 374.256 244.455 374.801 246.045C375.362 247.636 376.188 248.894 377.278 249.818C378.384 250.727 379.748 251.182 381.369 251.182ZM410.812 258L401.312 223.091H411.108L416.517 246.545H416.835L422.472 223.091H432.085L437.812 246.409H438.108L443.426 223.091H453.199L443.722 258H433.472L427.472 236.045H427.04L421.04 258H410.812Z" fill="white"/>
<path d="M174.098 283.547H170.987C170.93 283.144 170.814 282.787 170.639 282.474C170.464 282.157 170.239 281.887 169.964 281.665C169.69 281.442 169.373 281.272 169.013 281.153C168.658 281.035 168.272 280.976 167.855 280.976C167.102 280.976 166.446 281.163 165.888 281.537C165.329 281.906 164.896 282.446 164.588 283.156C164.28 283.862 164.126 284.719 164.126 285.727C164.126 286.764 164.28 287.635 164.588 288.341C164.901 289.046 165.336 289.579 165.895 289.939C166.454 290.299 167.1 290.479 167.834 290.479C168.246 290.479 168.627 290.424 168.977 290.315C169.332 290.206 169.647 290.048 169.922 289.839C170.196 289.626 170.424 289.368 170.604 289.065C170.788 288.762 170.916 288.417 170.987 288.028L174.098 288.043C174.018 288.71 173.816 289.354 173.494 289.974C173.177 290.59 172.749 291.142 172.209 291.629C171.674 292.112 171.035 292.496 170.291 292.78C169.553 293.059 168.717 293.199 167.784 293.199C166.487 293.199 165.327 292.905 164.304 292.318C163.286 291.731 162.481 290.881 161.889 289.768C161.302 288.656 161.009 287.309 161.009 285.727C161.009 284.141 161.307 282.792 161.903 281.679C162.5 280.566 163.31 279.719 164.332 279.136C165.355 278.549 166.506 278.256 167.784 278.256C168.627 278.256 169.408 278.374 170.128 278.611C170.852 278.848 171.494 279.193 172.053 279.648C172.611 280.098 173.066 280.649 173.416 281.303C173.771 281.956 173.999 282.704 174.098 283.547ZM179.272 278.455V293H176.246V278.455H179.272ZM181.696 293V282.091H184.721V293H181.696ZM183.216 280.685C182.766 280.685 182.38 280.536 182.058 280.237C181.741 279.934 181.582 279.572 181.582 279.151C181.582 278.734 181.741 278.376 182.058 278.078C182.38 277.775 182.766 277.624 183.216 277.624C183.665 277.624 184.049 277.775 184.366 278.078C184.688 278.376 184.849 278.734 184.849 279.151C184.849 279.572 184.688 279.934 184.366 280.237C184.049 280.536 183.665 280.685 183.216 280.685ZM192.074 293.213C190.956 293.213 189.995 292.976 189.19 292.503C188.39 292.025 187.775 291.362 187.344 290.514C186.918 289.667 186.705 288.691 186.705 287.588C186.705 286.471 186.92 285.491 187.351 284.648C187.786 283.8 188.404 283.14 189.205 282.666C190.005 282.188 190.956 281.949 192.06 281.949C193.011 281.949 193.845 282.122 194.56 282.467C195.275 282.813 195.84 283.298 196.257 283.923C196.674 284.548 196.903 285.282 196.946 286.125H194.091C194.01 285.58 193.797 285.143 193.452 284.811C193.111 284.475 192.663 284.307 192.109 284.307C191.641 284.307 191.231 284.435 190.881 284.69C190.535 284.941 190.265 285.308 190.071 285.791C189.877 286.274 189.78 286.859 189.78 287.545C189.78 288.241 189.875 288.833 190.064 289.321C190.258 289.809 190.53 290.18 190.881 290.436C191.231 290.692 191.641 290.82 192.109 290.82C192.455 290.82 192.765 290.749 193.04 290.607C193.319 290.464 193.549 290.259 193.729 289.989C193.913 289.714 194.034 289.385 194.091 289.001H196.946C196.899 289.835 196.671 290.569 196.264 291.203C195.862 291.833 195.305 292.325 194.595 292.68C193.885 293.036 193.045 293.213 192.074 293.213ZM201.625 289.861L201.632 286.232H202.072L205.566 282.091H209.039L204.345 287.574H203.627L201.625 289.861ZM198.883 293V278.455H201.909V293H198.883ZM205.701 293L202.491 288.249L204.508 286.111L209.245 293H205.701Z" fill="#14F195"/>
<path d="M264.098 283.547H260.987C260.93 283.144 260.814 282.787 260.639 282.474C260.464 282.157 260.239 281.887 259.964 281.665C259.69 281.442 259.373 281.272 259.013 281.153C258.658 281.035 258.272 280.976 257.855 280.976C257.102 280.976 256.446 281.163 255.888 281.537C255.329 281.906 254.896 282.446 254.588 283.156C254.28 283.862 254.126 284.719 254.126 285.727C254.126 286.764 254.28 287.635 254.588 288.341C254.901 289.046 255.336 289.579 255.895 289.939C256.454 290.299 257.1 290.479 257.834 290.479C258.246 290.479 258.627 290.424 258.977 290.315C259.332 290.206 259.647 290.048 259.922 289.839C260.196 289.626 260.424 289.368 260.604 289.065C260.788 288.762 260.916 288.417 260.987 288.028L264.098 288.043C264.018 288.71 263.816 289.354 263.494 289.974C263.177 290.59 262.749 291.142 262.209 291.629C261.674 292.112 261.035 292.496 260.291 292.78C259.553 293.059 258.717 293.199 257.784 293.199C256.487 293.199 255.327 292.905 254.304 292.318C253.286 291.731 252.481 290.881 251.889 289.768C251.302 288.656 251.009 287.309 251.009 285.727C251.009 284.141 251.307 282.792 251.903 281.679C252.5 280.566 253.31 279.719 254.332 279.136C255.355 278.549 256.506 278.256 257.784 278.256C258.627 278.256 259.408 278.374 260.128 278.611C260.852 278.848 261.494 279.193 262.053 279.648C262.611 280.098 263.066 280.649 263.416 281.303C263.771 281.956 263.999 282.704 264.098 283.547ZM271.175 293.213C270.072 293.213 269.118 292.979 268.313 292.51C267.513 292.036 266.895 291.378 266.46 290.536C266.024 289.688 265.806 288.705 265.806 287.588C265.806 286.461 266.024 285.476 266.46 284.634C266.895 283.786 267.513 283.128 268.313 282.659C269.118 282.186 270.072 281.949 271.175 281.949C272.279 281.949 273.23 282.186 274.031 282.659C274.835 283.128 275.456 283.786 275.891 284.634C276.327 285.476 276.545 286.461 276.545 287.588C276.545 288.705 276.327 289.688 275.891 290.536C275.456 291.378 274.835 292.036 274.031 292.51C273.23 292.979 272.279 293.213 271.175 293.213ZM271.19 290.869C271.692 290.869 272.111 290.727 272.447 290.443C272.783 290.154 273.036 289.761 273.207 289.264C273.382 288.767 273.469 288.201 273.469 287.567C273.469 286.932 273.382 286.366 273.207 285.869C273.036 285.372 272.783 284.979 272.447 284.69C272.111 284.402 271.692 284.257 271.19 284.257C270.683 284.257 270.257 284.402 269.911 284.69C269.57 284.979 269.312 285.372 269.137 285.869C268.967 286.366 268.881 286.932 268.881 287.567C268.881 288.201 268.967 288.767 269.137 289.264C269.312 289.761 269.57 290.154 269.911 290.443C270.257 290.727 270.683 290.869 271.19 290.869ZM281.538 286.693V293H278.512V282.091H281.396V284.016H281.523C281.765 283.381 282.17 282.879 282.738 282.51C283.306 282.136 283.995 281.949 284.805 281.949C285.562 281.949 286.223 282.115 286.786 282.446C287.35 282.777 287.788 283.251 288.1 283.866C288.413 284.477 288.569 285.206 288.569 286.054V293H285.543V286.594C285.548 285.926 285.378 285.405 285.032 285.031C284.686 284.652 284.21 284.463 283.604 284.463C283.197 284.463 282.837 284.551 282.525 284.726C282.217 284.901 281.976 285.157 281.8 285.493C281.63 285.824 281.542 286.224 281.538 286.693ZM293.979 286.693V293H290.953V282.091H293.837V284.016H293.965C294.206 283.381 294.611 282.879 295.179 282.51C295.748 282.136 296.436 281.949 297.246 281.949C298.004 281.949 298.664 282.115 299.228 282.446C299.791 282.777 300.229 283.251 300.542 283.866C300.854 284.477 301.01 285.206 301.01 286.054V293H297.985V286.594C297.989 285.926 297.819 285.405 297.473 285.031C297.128 284.652 296.652 284.463 296.046 284.463C295.639 284.463 295.279 284.551 294.966 284.726C294.658 284.901 294.417 285.157 294.242 285.493C294.071 285.824 293.984 286.224 293.979 286.693ZM308.366 293.213C307.244 293.213 306.278 292.986 305.469 292.531C304.664 292.072 304.044 291.423 303.608 290.585C303.172 289.742 302.955 288.746 302.955 287.595C302.955 286.473 303.172 285.488 303.608 284.641C304.044 283.793 304.657 283.133 305.447 282.659C306.243 282.186 307.176 281.949 308.246 281.949C308.965 281.949 309.635 282.065 310.256 282.297C310.881 282.524 311.425 282.867 311.889 283.327C312.358 283.786 312.723 284.364 312.983 285.06C313.243 285.751 313.374 286.561 313.374 287.489V288.32H304.162V286.445H310.526C310.526 286.009 310.431 285.623 310.241 285.287C310.052 284.951 309.789 284.688 309.453 284.499C309.122 284.304 308.736 284.207 308.295 284.207C307.836 284.207 307.429 284.314 307.074 284.527C306.723 284.735 306.449 285.017 306.25 285.372C306.051 285.723 305.949 286.113 305.945 286.544V288.327C305.945 288.866 306.044 289.333 306.243 289.726C306.446 290.119 306.733 290.422 307.102 290.635C307.472 290.848 307.91 290.955 308.416 290.955C308.752 290.955 309.06 290.907 309.339 290.812C309.619 290.718 309.858 290.576 310.057 290.386C310.256 290.197 310.407 289.965 310.511 289.69L313.31 289.875C313.168 290.547 312.876 291.134 312.436 291.636C312 292.134 311.437 292.522 310.746 292.801C310.059 293.076 309.266 293.213 308.366 293.213ZM320.277 293.213C319.16 293.213 318.198 292.976 317.393 292.503C316.593 292.025 315.978 291.362 315.547 290.514C315.121 289.667 314.908 288.691 314.908 287.588C314.908 286.471 315.123 285.491 315.554 284.648C315.99 283.8 316.607 283.14 317.408 282.666C318.208 282.188 319.16 281.949 320.263 281.949C321.214 281.949 322.048 282.122 322.763 282.467C323.478 282.813 324.044 283.298 324.46 283.923C324.877 284.548 325.107 285.282 325.149 286.125H322.294C322.214 285.58 322 285.143 321.655 284.811C321.314 284.475 320.866 284.307 320.312 284.307C319.844 284.307 319.434 284.435 319.084 284.69C318.738 284.941 318.468 285.308 318.274 285.791C318.08 286.274 317.983 286.859 317.983 287.545C317.983 288.241 318.078 288.833 318.267 289.321C318.461 289.809 318.733 290.18 319.084 290.436C319.434 290.692 319.844 290.82 320.312 290.82C320.658 290.82 320.968 290.749 321.243 290.607C321.522 290.464 321.752 290.259 321.932 289.989C322.116 289.714 322.237 289.385 322.294 289.001H325.149C325.102 289.835 324.875 290.569 324.467 291.203C324.065 291.833 323.509 292.325 322.798 292.68C322.088 293.036 321.248 293.213 320.277 293.213ZM332.889 282.091V284.364H326.319V282.091H332.889ZM327.811 279.477H330.836V289.648C330.836 289.927 330.879 290.145 330.964 290.301C331.049 290.453 331.168 290.559 331.319 290.621C331.475 290.682 331.655 290.713 331.859 290.713C332.001 290.713 332.143 290.701 332.285 290.678C332.427 290.649 332.536 290.628 332.612 290.614L333.088 292.865C332.936 292.912 332.723 292.967 332.449 293.028C332.174 293.095 331.84 293.135 331.447 293.149C330.718 293.178 330.079 293.08 329.529 292.858C328.985 292.635 328.561 292.29 328.258 291.821C327.955 291.352 327.806 290.76 327.811 290.045V279.477Z" fill="#14F195"/>
<path d="M385.098 283.547H381.987C381.93 283.144 381.814 282.787 381.639 282.474C381.464 282.157 381.239 281.887 380.964 281.665C380.69 281.442 380.373 281.272 380.013 281.153C379.658 281.035 379.272 280.976 378.855 280.976C378.102 280.976 377.446 281.163 376.888 281.537C376.329 281.906 375.896 282.446 375.588 283.156C375.28 283.862 375.126 284.719 375.126 285.727C375.126 286.764 375.28 287.635 375.588 288.341C375.901 289.046 376.336 289.579 376.895 289.939C377.454 290.299 378.1 290.479 378.834 290.479C379.246 290.479 379.627 290.424 379.977 290.315C380.332 290.206 380.647 290.048 380.922 289.839C381.196 289.626 381.424 289.368 381.604 289.065C381.788 288.762 381.916 288.417 381.987 288.028L385.098 288.043C385.018 288.71 384.816 289.354 384.494 289.974C384.177 290.59 383.749 291.142 383.209 291.629C382.674 292.112 382.035 292.496 381.291 292.78C380.553 293.059 379.717 293.199 378.784 293.199C377.487 293.199 376.327 292.905 375.304 292.318C374.286 291.731 373.481 290.881 372.889 289.768C372.302 288.656 372.009 287.309 372.009 285.727C372.009 284.141 372.307 282.792 372.903 281.679C373.5 280.566 374.31 279.719 375.332 279.136C376.355 278.549 377.506 278.256 378.784 278.256C379.627 278.256 380.408 278.374 381.128 278.611C381.852 278.848 382.494 279.193 383.053 279.648C383.611 280.098 384.066 280.649 384.416 281.303C384.771 281.956 384.999 282.704 385.098 283.547ZM392.175 293.213C391.072 293.213 390.118 292.979 389.313 292.51C388.513 292.036 387.895 291.378 387.46 290.536C387.024 289.688 386.806 288.705 386.806 287.588C386.806 286.461 387.024 285.476 387.46 284.634C387.895 283.786 388.513 283.128 389.313 282.659C390.118 282.186 391.072 281.949 392.175 281.949C393.279 281.949 394.23 282.186 395.031 282.659C395.835 283.128 396.456 283.786 396.891 284.634C397.327 285.476 397.545 286.461 397.545 287.588C397.545 288.705 397.327 289.688 396.891 290.536C396.456 291.378 395.835 292.036 395.031 292.51C394.23 292.979 393.279 293.213 392.175 293.213ZM392.19 290.869C392.692 290.869 393.111 290.727 393.447 290.443C393.783 290.154 394.036 289.761 394.207 289.264C394.382 288.767 394.469 288.201 394.469 287.567C394.469 286.932 394.382 286.366 394.207 285.869C394.036 285.372 393.783 284.979 393.447 284.69C393.111 284.402 392.692 284.257 392.19 284.257C391.683 284.257 391.257 284.402 390.911 284.69C390.57 284.979 390.312 285.372 390.137 285.869C389.967 286.366 389.881 286.932 389.881 287.567C389.881 288.201 389.967 288.767 390.137 289.264C390.312 289.761 390.57 290.154 390.911 290.443C391.257 290.727 391.683 290.869 392.19 290.869ZM402.538 286.693V293H399.512V282.091H402.396V284.016H402.523C402.765 283.381 403.17 282.879 403.738 282.51C404.306 282.136 404.995 281.949 405.805 281.949C406.562 281.949 407.223 282.115 407.786 282.446C408.35 282.777 408.788 283.251 409.1 283.866C409.413 284.477 409.569 285.206 409.569 286.054V293H406.543V286.594C406.548 285.926 406.378 285.405 406.032 285.031C405.686 284.652 405.21 284.463 404.604 284.463C404.197 284.463 403.837 284.551 403.525 284.726C403.217 284.901 402.976 285.157 402.8 285.493C402.63 285.824 402.542 286.224 402.538 286.693ZM421.733 282.091L417.919 293H414.51L410.696 282.091H413.892L416.158 289.896H416.272L418.53 282.091H421.733ZM427.902 293.213C426.779 293.213 425.814 292.986 425.004 292.531C424.199 292.072 423.579 291.423 423.143 290.585C422.708 289.742 422.49 288.746 422.49 287.595C422.49 286.473 422.708 285.488 423.143 284.641C423.579 283.793 424.192 283.133 424.983 282.659C425.778 282.186 426.711 281.949 427.781 281.949C428.501 281.949 429.171 282.065 429.791 282.297C430.416 282.524 430.96 282.867 431.424 283.327C431.893 283.786 432.258 284.364 432.518 285.06C432.779 285.751 432.909 286.561 432.909 287.489V288.32H423.697V286.445H430.061C430.061 286.009 429.966 285.623 429.777 285.287C429.587 284.951 429.324 284.688 428.988 284.499C428.657 284.304 428.271 284.207 427.831 284.207C427.371 284.207 426.964 284.314 426.609 284.527C426.259 284.735 425.984 285.017 425.785 285.372C425.586 285.723 425.484 286.113 425.48 286.544V288.327C425.48 288.866 425.579 289.333 425.778 289.726C425.982 290.119 426.268 290.422 426.637 290.635C427.007 290.848 427.445 290.955 427.951 290.955C428.288 290.955 428.595 290.907 428.875 290.812C429.154 290.718 429.393 290.576 429.592 290.386C429.791 290.197 429.942 289.965 430.047 289.69L432.845 289.875C432.703 290.547 432.412 291.134 431.971 291.636C431.536 292.134 430.972 292.522 430.281 292.801C429.594 293.076 428.801 293.213 427.902 293.213ZM434.883 293V282.091H437.816V283.994H437.93C438.129 283.317 438.463 282.806 438.931 282.46C439.4 282.11 439.94 281.935 440.551 281.935C440.702 281.935 440.866 281.944 441.041 281.963C441.216 281.982 441.37 282.008 441.502 282.041V284.726C441.36 284.683 441.164 284.645 440.913 284.612C440.662 284.579 440.432 284.562 440.224 284.562C439.779 284.562 439.381 284.66 439.031 284.854C438.685 285.043 438.411 285.308 438.207 285.649C438.008 285.99 437.909 286.383 437.909 286.828V293H434.883ZM449.416 282.091V284.364H442.847V282.091H449.416ZM444.338 279.477H447.364V289.648C447.364 289.927 447.406 290.145 447.491 290.301C447.577 290.453 447.695 290.559 447.847 290.621C448.003 290.682 448.183 290.713 448.386 290.713C448.528 290.713 448.67 290.701 448.812 290.678C448.955 290.649 449.063 290.628 449.139 290.614L449.615 292.865C449.464 292.912 449.25 292.967 448.976 293.028C448.701 293.095 448.367 293.135 447.974 293.149C447.245 293.178 446.606 293.08 446.057 292.858C445.512 292.635 445.089 292.29 444.786 291.821C444.482 291.352 444.333 290.76 444.338 290.045V279.477Z" fill="#14F195"/>
<path d="M226.952 292.369C226.014 292.369 225.209 292.038 224.537 291.375C223.874 290.703 223.543 289.898 223.543 288.96C223.543 288.032 223.874 287.237 224.537 286.574C225.209 285.911 226.014 285.58 226.952 285.58C227.861 285.58 228.656 285.911 229.338 286.574C230.02 287.237 230.361 288.032 230.361 288.96C230.361 289.585 230.2 290.158 229.878 290.679C229.565 291.19 229.153 291.602 228.642 291.915C228.131 292.218 227.567 292.369 226.952 292.369Z" fill="#14F195"/>
<path d="M348.952 292.369C348.014 292.369 347.209 292.038 346.537 291.375C345.874 290.703 345.543 289.898 345.543 288.96C345.543 288.032 345.874 287.237 346.537 286.574C347.209 285.911 348.014 285.58 348.952 285.58C349.861 285.58 350.656 285.911 351.338 286.574C352.02 287.237 352.361 288.032 352.361 288.96C352.361 289.585 352.2 290.158 351.878 290.679C351.565 291.19 351.153 291.602 350.642 291.915C350.131 292.218 349.567 292.369 348.952 292.369Z" fill="#14F195"/>
</svg>
