<svg xmlns="http://www.w3.org/2000/svg" version="1.1" xmlns:xlink="http://www.w3.org/1999/xlink" width="1000" height="1000"><style>
    #light-icon {
      display: inline;
    }
    #dark-icon {
      display: none;
    }

    @media (prefers-color-scheme: dark) {
      #light-icon {
        display: none;
      }
      #dark-icon {
        display: inline;
      }
    }
  </style><g id="light-icon"><svg xmlns="http://www.w3.org/2000/svg" version="1.1" xmlns:xlink="http://www.w3.org/1999/xlink" width="1000" height="1000"><g><g transform="matrix(2,0,0,2,0,0)"><svg xmlns="http://www.w3.org/2000/svg" version="1.1" xmlns:xlink="http://www.w3.org/1999/xlink" width="500" height="500"><svg width="500" height="500" viewBox="0 0 500 500" fill="none" xmlns="http://www.w3.org/2000/svg">
<g clip-path="url(#clip0_2_25)">
<rect width="500" height="500" fill="#0C1E3A"></rect>
<path d="M74.9738 338.569C72.432 339.855 69.1459 339.109 67.7079 336.869C45.7629 302.677 37.1392 263.284 43.2155 224.595C49.5319 184.377 71.3631 147.273 105.176 119.288C138.989 91.3034 182.805 74.075 229.532 70.3914C276.26 66.7079 323.165 76.7847 362.656 98.991C402.147 121.197 431.913 154.234 447.137 192.753C462.36 231.273 462.151 273.022 446.542 311.244C430.934 349.465 400.839 381.922 361.129 403.362C322.929 423.987 277.98 433.256 233.056 429.847C230.113 429.623 227.986 427.325 228.299 424.786L232.897 387.538C233.21 384.999 235.845 383.183 238.791 383.383C271.617 385.618 304.393 378.731 332.307 363.66C361.73 347.774 384.029 323.724 395.595 295.403C407.16 267.083 407.315 236.148 396.035 207.606C384.755 179.065 362.699 154.586 333.438 138.132C304.177 121.678 269.422 114.211 234.798 116.941C200.175 119.67 167.709 132.436 142.655 153.171C117.601 173.907 101.425 201.4 96.7445 231.2C92.3045 259.47 98.4573 288.248 114.223 313.337C115.638 315.589 114.806 318.418 112.264 319.704L74.9738 338.569Z" fill="white"></path>
<path d="M308.653 158.759C312.169 157.108 316.19 159.028 316.23 162.377L318.306 336.872C318.349 340.532 313.689 343.107 310.114 341.399L124.876 252.943C121.3 251.236 121.651 246.602 125.492 244.798L308.653 158.759Z" fill="#14F195"></path>
<rect width="40.9422" height="233.086" rx="5" transform="matrix(0.898177 0.439634 -0.588786 0.808289 205.238 275)" fill="#14F195"></rect>
</g>
<defs>
<clipPath id="clip0_2_25">
<rect width="500" height="500" fill="white"></rect>
</clipPath>
</defs>
</svg></svg></g></g></svg></g><g id="dark-icon"><svg xmlns="http://www.w3.org/2000/svg" version="1.1" xmlns:xlink="http://www.w3.org/1999/xlink" width="1000" height="1000"><g><g transform="matrix(2,0,0,2,0,0)"><svg xmlns="http://www.w3.org/2000/svg" version="1.1" xmlns:xlink="http://www.w3.org/1999/xlink" width="500" height="500"><svg width="500" height="500" viewBox="0 0 500 500" fill="none" xmlns="http://www.w3.org/2000/svg">
<g clip-path="url(#clip0_2_42)">
<path d="M74.9738 338.569C72.432 339.855 69.1459 339.109 67.7079 336.869C45.7629 302.677 37.1392 263.284 43.2155 224.595C49.5319 184.377 71.3631 147.273 105.176 119.288C138.989 91.3034 182.805 74.075 229.532 70.3914C276.26 66.7079 323.165 76.7847 362.656 98.991C402.147 121.197 431.913 154.234 447.137 192.753C462.36 231.273 462.151 273.022 446.542 311.244C430.934 349.465 400.839 381.922 361.129 403.362C322.929 423.987 277.98 433.256 233.056 429.847C230.113 429.623 227.986 427.325 228.299 424.786L232.897 387.538C233.21 384.999 235.845 383.183 238.791 383.383C271.617 385.618 304.393 378.731 332.307 363.66C361.73 347.774 384.029 323.724 395.595 295.403C407.16 267.083 407.315 236.148 396.035 207.606C384.755 179.065 362.699 154.586 333.438 138.132C304.177 121.678 269.422 114.211 234.798 116.941C200.175 119.67 167.709 132.436 142.655 153.171C117.601 173.907 101.425 201.4 96.7445 231.2C92.3045 259.47 98.4573 288.248 114.223 313.337C115.638 315.589 114.806 318.418 112.264 319.704L74.9738 338.569Z" fill="white"></path>
<path d="M308.653 158.759C312.169 157.108 316.19 159.028 316.23 162.377L318.306 336.872C318.349 340.532 313.689 343.107 310.114 341.399L124.876 252.943C121.3 251.236 121.651 246.602 125.492 244.798L308.653 158.759Z" fill="#14F195"></path>
<rect width="40.9422" height="233.086" rx="5" transform="matrix(0.898177 0.439634 -0.588786 0.808289 205.238 275)" fill="#14F195"></rect>
</g>
<defs>
<clipPath id="clip0_2_42">
<rect width="500" height="500" fill="white"></rect>
</clipPath>
</defs>
</svg></svg></g></g></svg></g></svg>